# xmcd
#
# Track frame offsets:
#	150
#	20142
#	43060
#	65432
#	89567
#	108657
#	128272
#	148600
#	167337
#	185307
#	203080
#	221542
#	239282
#	257997
#	274877
#	295317
#	313075
#
# Disc length: 4481 seconds
#
# Revision: 1
# Processed by: cddbd v1.5PL3 Copyright (c) Steve Scherf et al.
# Submitted via: CDex 1.50Beta5
#
DISCID=02117f11
DTITLE=吉幾三 - 吉幾三コレクション
DYEAR=2001
DGENRE=Blues
TTITLE0=夢で抱かれて
TTITLE1=窓を開ければ
TTITLE2=海峡
TTITLE3=立佞武多
TTITLE4=門出
TTITLE5=男の港
TTITLE6=時代おくれ
TTITLE7=津軽平野
TTITLE8=出張物語
TTITLE9=宗右衛門町ブルース
TTITLE10=酒よ
TTITLE11=一度だけなら
TTITLE12=望郷酒場
TTITLE13=あなたのブルース
TTITLE14=雪國
TTITLE15=哀のブルース
TTITLE16=晩秋
EXTD=
EXTT0=
EXTT1=
EXTT2=
EXTT3=
EXTT4=
EXTT5=
EXTT6=
EXTT7=
EXTT8=
EXTT9=
EXTT10=
EXTT11=
EXTT12=
EXTT13=
EXTT14=
EXTT15=
EXTT16=
PLAYORDER=
